<svg width="800" height="450" viewBox="0 0 800 450" fill="none" xmlns="http://www.w3.org/2000/svg">
  <defs>
    <linearGradient id="matrimonialBg" x1="0%" y1="0%" x2="100%" y2="100%">
      <stop offset="0%" style="stop-color:#EC4899;stop-opacity:1" />
      <stop offset="100%" style="stop-color:#8B5CF6;stop-opacity:1" />
    </linearGradient>
  </defs>
  
  <!-- Background -->
  <rect width="800" height="450" fill="url(#matrimonialBg)"/>
  
  <!-- Decorative circles -->
  <circle cx="100" cy="100" r="60" fill="white" opacity="0.1"/>
  <circle cx="700" cy="350" r="80" fill="white" opacity="0.1"/>
  
  <!-- Main icon - Hearts -->
  <g transform="translate(400, 180)">
    <path d="M -40 0 C -40 -20, -65 -20, -65 0 C -65 20, -40 40, -15 60 C 10 40, 35 20, 35 0 C 35 -20, 10 -20, 10 0 Z" 
          fill="white" opacity="0.95" transform="translate(-50, 0)"/>
    <path d="M -40 0 C -40 -20, -65 -20, -65 0 C -65 20, -40 40, -15 60 C 10 40, 35 20, 35 0 C 35 -20, 10 -20, 10 0 Z" 
          fill="white" opacity="0.95" transform="translate(50, 0)"/>
  </g>
  
  <!-- Text -->
  <text x="400" y="320" font-family="Arial, sans-serif" font-size="48" font-weight="bold" 
        fill="white" text-anchor="middle">Matrimonial Website</text>
  <text x="400" y="365" font-family="Arial, sans-serif" font-size="24" 
        fill="white" text-anchor="middle" opacity="0.9">Faith-Based Matchmaking Platform</text>
</svg>
